<svg xmlns="http://www.w3.org/2000/svg" fill="currentColor" class="bi bi-1-square" viewBox="0 0 64 64" id="1-Square--Streamline-Bootstrap.svg" height="64" width="64"><desc>1 Square Streamline Icon: https://streamlinehq.com</desc><path d="M37.132 16.008V48H31.884V21.352h-0.26L24.288 26.624V21.54l7.596 -5.532z" stroke-width="1"></path><path d="M0 8a8 8 0 0 1 8 -8h48a8 8 0 0 1 8 8v48a8 8 0 0 1 -8 8H8a8 8 0 0 1 -8 -8zm60 0a4 4 0 0 0 -4 -4H8a4 4 0 0 0 -4 4v48a4 4 0 0 0 4 4h48a4 4 0 0 0 4 -4z" stroke-width="1"></path></svg>