<svg xmlns="http://www.w3.org/2000/svg" fill="currentColor" class="bi bi-arrow-left-circle" viewBox="0 0 64 64" id="Arrow-Left-Circle--Streamline-Bootstrap.svg" height="64" width="64"><desc>Arrow Left Circle Streamline Icon: https://streamlinehq.com</desc><path fill-rule="evenodd" d="M4 32a28 28 0 1 0 56 0A28 28 0 0 0 4 32m60 0A32 32 0 1 1 0 32a32 32 0 0 1 64 0m-18 -2a2 2 0 0 1 0 4H22.828l8.588 8.584a2 2 0 0 1 -2.832 2.832l-12 -12a2 2 0 0 1 0 -2.832l12 -12a2 2 0 1 1 2.832 2.832L22.828 30z" stroke-width="1"></path></svg>