<svg xmlns="http://www.w3.org/2000/svg" fill="currentColor" class="bi bi-arrow-right-circle" viewBox="0 0 64 64" id="Arrow-Right-Circle--Streamline-Bootstrap.svg" height="64" width="64"><desc>Arrow Right Circle Streamline Icon: https://streamlinehq.com</desc><path fill-rule="evenodd" d="M4 32a28 28 0 1 0 56 0A28 28 0 0 0 4 32m60 0A32 32 0 1 1 0 32a32 32 0 0 1 64 0M18 30a2 2 0 0 0 0 4h23.172l-8.588 8.584a2 2 0 0 0 2.832 2.832l12 -12a2 2 0 0 0 0 -2.832l-12 -12a2 2 0 1 0 -2.832 2.832L41.172 30z" stroke-width="1"></path></svg>