<svg xmlns="http://www.w3.org/2000/svg" fill="currentColor" class="bi bi-copy" viewBox="0 0 64 64" id="Copy--Streamline-Bootstrap.svg" height="64" width="64"><desc>Copy Streamline Icon: https://streamlinehq.com</desc><path fill-rule="evenodd" d="M16 8a8 8 0 0 1 8 -8h32a8 8 0 0 1 8 8v32a8 8 0 0 1 -8 8H24a8 8 0 0 1 -8 -8zm8 -4a4 4 0 0 0 -4 4v32a4 4 0 0 0 4 4h32a4 4 0 0 0 4 -4V8a4 4 0 0 0 -4 -4zM8 20a4 4 0 0 0 -4 4v32a4 4 0 0 0 4 4h32a4 4 0 0 0 4 -4v-4h4v4a8 8 0 0 1 -8 8H8a8 8 0 0 1 -8 -8V24a8 8 0 0 1 8 -8h4v4z" stroke-width="1"></path></svg>