<svg xmlns="http://www.w3.org/2000/svg" fill="currentColor" class="bi bi-crop" viewBox="0 0 64 64" id="Crop--Streamline-Bootstrap.svg" height="64" width="64"><desc>Crop Streamline Icon: https://streamlinehq.com</desc><path d="M11.7084 0.64C12.7272 0.64 13.5528 1.466 13.5528 2.4848V50.4472H61.5152C62.9352 50.4536 63.8156 51.9952 63.1 53.2216C62.7708 53.7856 62.1684 54.1336 61.5152 54.1364H54.1364V61.5152C54.13 62.9352 52.5884 63.8156 51.362 63.1C50.798 62.7708 50.45 62.1684 50.4472 61.5152V54.1364H11.7084C10.6896 54.1364 9.8636 53.3104 9.8636 52.2916V13.5528H2.4848C1.0648 13.5464 0.1844 12.0048 0.9 10.7784C1.2292 10.2144 1.8316 9.8664 2.4848 9.8636H9.8636V2.4848C9.8636 1.466 10.6896 0.64 11.7084 0.64M20.9316 11.7084C20.9316 10.6892 21.7576 9.8636 22.7764 9.8636H52.2916C53.3108 9.8636 54.1364 10.6892 54.1364 11.7084V41.2236C54.13 42.6436 52.5884 43.524 51.362 42.808C50.798 42.4792 50.45 41.8764 50.4472 41.2236V13.5528H22.7764C21.7576 13.5528 20.9316 12.7272 20.9316 11.7084" stroke-width="1"></path></svg>