<svg xmlns="http://www.w3.org/2000/svg" fill="currentColor" class="bi bi-image" viewBox="0 0 64 64" id="Image--Streamline-Bootstrap.svg" height="64" width="64"><desc>Image Streamline Icon: https://streamlinehq.com</desc><path d="M24.008 22a6 6 0 1 1 -12 0 6 6 0 0 1 12 0" stroke-width="1"></path><path d="M8.008 4a8 8 0 0 0 -8 8v40a8 8 0 0 0 8 8h48a8 8 0 0 0 8 -8V12a8 8 0 0 0 -8 -8zm48 4a4 4 0 0 1 4 4v26l-15.108 -7.788a2 2 0 0 0 -2.308 0.372l-14.84 14.84 -10.64 -7.088a2 2 0 0 0 -2.52 0.248L4.008 48V12a4 4 0 0 1 4 -4z" stroke-width="1"></path></svg>