<svg xmlns="http://www.w3.org/2000/svg" fill="currentColor" class="bi bi-pencil-square" viewBox="0 0 64 64" id="Pencil-Square--Streamline-Bootstrap.svg" height="64" width="64"><desc>Pencil Square Streamline Icon: https://streamlinehq.com</desc><path d="M62.7352 7.1232C63.5684 7.9588 63.5684 9.3108 62.7352 10.1464L58.2692 14.6164L49.7056 6.0528L54.1716 1.5828C55.0076 0.7468 56.3628 0.7468 57.1988 1.5828L62.7352 7.1192ZM55.242 17.6396L46.6784 9.076L17.506 38.2524C17.2704 38.488 17.0932 38.7752 16.988 39.0916L13.5412 49.428C13.2816 50.21 13.9664 50.98 14.7732 50.8136C14.8144 50.8048 14.8548 50.794 14.8944 50.7812L25.2308 47.334C25.5464 47.2304 25.834 47.0544 26.07 46.8204L55.242 17.644Z" stroke-width="1"></path><path fill-rule="evenodd" d="M0.64 56.6216C0.64 60.1688 3.5156 63.0444 7.0628 63.0444H54.1632C57.71 63.044 60.5856 60.1684 60.5856 56.6216V30.9304C60.5856 29.2824 58.8016 28.2524 57.3744 29.0764C56.712 29.4588 56.304 30.1656 56.304 30.9304V56.6216C56.304 57.804 55.3456 58.7624 54.1632 58.7624H7.0628C5.8804 58.7624 4.922 57.804 4.922 56.6216V9.5212C4.922 8.3388 5.8804 7.3804 7.0628 7.3804H34.8948C36.5428 7.38 37.5728 5.596 36.7488 4.1688C36.3664 3.5064 35.6596 3.0984 34.8948 3.0984H7.0628C3.5156 3.0984 0.64 5.974 0.64 9.5212Z" stroke-width="1"></path></svg>