<svg xmlns="http://www.w3.org/2000/svg" fill="currentColor" class="bi bi-plus-circle" viewBox="0 0 64 64" id="Plus-Circle--Streamline-Bootstrap.svg" height="64" width="64"><desc>Plus Circle Streamline Icon: https://streamlinehq.com</desc><path d="M32 60A28 28 0 1 1 32 4a28 28 0 0 1 0 56m0 4A32 32 0 1 0 32 0a32 32 0 0 0 0 64" stroke-width="1"></path><path d="M32 16a2 2 0 0 1 2 2v12h12a2 2 0 0 1 0 4h-12v12a2 2 0 0 1 -4 0v-12h-12a2 2 0 0 1 0 -4h12v-12A2 2 0 0 1 32 16" stroke-width="1"></path></svg>