<svg xmlns="http://www.w3.org/2000/svg" fill="currentColor" class="bi bi-shuffle" viewBox="0 0 64 64" id="Shuffle--Streamline-Bootstrap.svg" height="64" width="64"><desc>Shuffle Streamline Icon: https://streamlinehq.com</desc><path fill-rule="evenodd" d="M0 14A2 2 0 0 1 2 12H4c8.808 0 15.308 4.96 19.496 9.672 1.96 2.208 3.46 4.408 4.504 6.128 1.04 -1.72 2.544 -3.92 4.504 -6.128C36.692 16.96 43.192 12 52 12v4c-7.192 0 -12.692 4.04 -16.504 8.328A38.4 38.4 0 0 0 30.224 32a38.4 38.4 0 0 0 5.268 7.672C39.312 43.96 44.816 48 52 48v4c-8.808 0 -15.308 -4.96 -19.496 -9.672A42.4 42.4 0 0 1 28 36.2c-1.04 1.72 -2.544 3.92 -4.504 6.128C19.308 47.04 12.808 52 4 52H2a2 2 0 0 1 0 -4H4c7.192 0 12.692 -4.04 16.504 -8.328A38.4 38.4 0 0 0 25.776 32a38.4 38.4 0 0 0 -5.268 -7.672C16.688 20.04 11.184 16 4 16H2a2 2 0 0 1 -2 -2" stroke-width="1"></path><path d="M52 21.864V6.136a1 1 0 0 1 1.64 -0.768l9.44 7.864c0.48 0.4 0.48 1.136 0 1.536l-9.44 7.864a1 1 0 0 1 -1.64 -0.768m0 36v-15.728a1 1 0 0 1 1.64 -0.768l9.44 7.864c0.48 0.4 0.48 1.136 0 1.536l-9.44 7.864a1 1 0 0 1 -1.64 -0.768" stroke-width="1"></path></svg>