<svg xmlns="http://www.w3.org/2000/svg" fill="currentColor" class="bi bi-vector-pen" viewBox="0 0 64 64" id="Vector-Pen--Streamline-Bootstrap.svg" height="64" width="64"><desc>Vector Pen Streamline Icon: https://streamlinehq.com</desc><path fill-rule="evenodd" d="M41.9868 1.2868C42.8472 0.4244 44.244 0.4244 45.104 1.2868L62.7132 18.896C63.5756 19.756 63.5756 21.1528 62.7132 22.0128L54.34 30.3864L50.6904 44.9712C50.126 47.2308 48.4128 49.0256 46.1824 49.6952L0.64 63.36L14.3048 17.8132C14.9748 15.5856 16.7676 13.8748 19.0244 13.3096L33.6092 9.6644ZM34.0628 14.0888L20.094 17.58C19.3396 17.768 18.7408 18.3404 18.518 19.0856L7.204 56.7916L44.9188 45.4776C45.6596 45.2532 46.2276 44.6564 46.4156 43.906L49.9112 29.9328L34.0628 14.0844Z" stroke-width="1"></path><path fill-rule="evenodd" d="M7.5868 56.6772L30.3384 38.064C33.7272 38.064 35.8452 34.3952 34.1508 31.4604C32.4564 28.5256 28.2204 28.5256 26.526 31.4604C26.1396 32.1296 25.936 32.8888 25.936 33.6616L7.3228 56.4132L7.2084 56.7916Z" stroke-width="1"></path></svg>